<svg xmlns="http://www.w3.org/2000/svg" viewBox="0 0 830 830"><defs><style>.cls-1{fill:#caddff;}.cls-2{fill:#fff;}.cls-3{fill:#99b9ff;}.cls-4{fill:#284659;}</style></defs><g id="Layer_2" data-name="Layer 2"><g id="Illustration"><g id="Front_end_development" data-name="Front end development"><path class="cls-1" d="M302.81,43.58c-46.25,17.84-243.6,94-292.09,277.54C-44.57,530.45,120.79,776.89,349.38,822.3c237.11,47.11,487.87-132.91,480.46-243.6C825,506.38,710.58,473.25,721.89,393c7.81-55.36,65.51-62.74,91-137.78,17.35-51.06,13.08-113.69-11-155.55C734.1-18,479.1-24.43,302.81,43.58Z"/><path d="M686.69,174.43,68.18,156.89a26.56,26.56,0,0,0-26.54,26.53v429.5a26.56,26.56,0,0,0,26.54,26.54H286.36L257.57,744.53l-25.83-15.72a17.08,17.08,0,1,0,0,34.16L472,751.92c9.42,0,28.92-23.11,28.92-23.11l-24.48-89.35S701.32,174.43,686.69,174.43Z"/><polygon class="cls-2" points="472.47 584.55 315.58 584.55 271.07 747 516.98 747 472.47 584.55"/><path d="M517,748.5H271.07a1.46,1.46,0,0,1-1.19-.59,1.48,1.48,0,0,1-.26-1.3l44.51-162.46a1.5,1.5,0,0,1,1.45-1.1H472.47a1.51,1.51,0,0,1,1.45,1.1l44.5,162.46A1.49,1.49,0,0,1,517,748.5ZM273,745.5H515L471.32,586.05H316.72Z"/><rect class="cls-2" x="55.76" y="158.39" width="676.52" height="479.57" rx="25.04"/><path d="M707.25,639.46H80.8a26.57,26.57,0,0,1-26.54-26.54V183.42A26.57,26.57,0,0,1,80.8,156.89H707.25a26.56,26.56,0,0,1,26.53,26.53v429.5A26.56,26.56,0,0,1,707.25,639.46ZM80.8,159.89a23.56,23.56,0,0,0-23.54,23.53v429.5A23.57,23.57,0,0,0,80.8,636.46H707.25a23.56,23.56,0,0,0,23.53-23.54V183.42a23.55,23.55,0,0,0-23.53-23.53Z"/><path class="cls-2" d="M543.68,730.31H244.37a15.58,15.58,0,1,0,0,31.16H543.68a15.58,15.58,0,0,0,0-31.16Z"/><path d="M543.68,763H244.37a17.08,17.08,0,1,1,0-34.16H543.68a17.08,17.08,0,0,1,0,34.16ZM244.37,731.81a14.08,14.08,0,1,0,0,28.16H543.68a14.08,14.08,0,0,0,0-28.16Z"/><rect class="cls-3" x="90.81" y="194.27" width="606.42" height="30.04" rx="10.98"/><path class="cls-2" d="M683.42,209.29a7.24,7.24,0,1,1-7.23-7.23A7.24,7.24,0,0,1,683.42,209.29Z"/><rect class="cls-2" x="91.06" y="238.41" width="293.47" height="364.71"/><path class="cls-3" d="M384.54,604.62h-12a1.5,1.5,0,0,1,0-3h12a1.5,1.5,0,1,1,0,3Zm-24,0h-12a1.5,1.5,0,0,1,0-3h12a1.5,1.5,0,1,1,0,3Zm-24,0h-12a1.5,1.5,0,0,1,0-3h12a1.5,1.5,0,1,1,0,3Zm-24,0h-12a1.5,1.5,0,0,1,0-3h12a1.5,1.5,0,1,1,0,3Zm-24,0h-12a1.5,1.5,0,0,1,0-3h12a1.5,1.5,0,1,1,0,3Zm-24,0h-12a1.5,1.5,0,1,1,0-3h12a1.5,1.5,0,1,1,0,3Zm-24,0h-12a1.5,1.5,0,1,1,0-3h12a1.5,1.5,0,0,1,0,3Zm-24,0h-12a1.5,1.5,0,1,1,0-3h12a1.5,1.5,0,0,1,0,3Zm-24,0h-12a1.5,1.5,0,1,1,0-3h12a1.5,1.5,0,0,1,0,3Zm-24,0h-12a1.5,1.5,0,1,1,0-3h12a1.5,1.5,0,0,1,0,3Zm-24,0h-12a1.5,1.5,0,1,1,0-3h12a1.5,1.5,0,0,1,0,3Zm-24,0h-12a1.5,1.5,0,1,1,0-3h12a1.5,1.5,0,0,1,0,3Zm-24,0H91.06a1.5,1.5,0,0,1-1.5-1.5v-6.53a1.5,1.5,0,0,1,3,0v5h4a1.5,1.5,0,0,1,0,3Zm288-8.36a1.5,1.5,0,0,1-1.5-1.5v-12a1.5,1.5,0,0,1,3,0v12A1.5,1.5,0,0,1,384.54,596.26ZM91.06,586.09a1.5,1.5,0,0,1-1.5-1.5v-12a1.5,1.5,0,0,1,3,0v12A1.5,1.5,0,0,1,91.06,586.09Zm293.48-13.83a1.5,1.5,0,0,1-1.5-1.5v-12a1.5,1.5,0,0,1,3,0v12A1.5,1.5,0,0,1,384.54,572.26ZM91.06,562.09a1.5,1.5,0,0,1-1.5-1.5v-12a1.5,1.5,0,0,1,3,0v12A1.5,1.5,0,0,1,91.06,562.09Zm293.48-13.83a1.5,1.5,0,0,1-1.5-1.5v-12a1.5,1.5,0,0,1,3,0v12A1.5,1.5,0,0,1,384.54,548.26ZM91.06,538.09a1.5,1.5,0,0,1-1.5-1.5v-12a1.5,1.5,0,0,1,3,0v12A1.5,1.5,0,0,1,91.06,538.09Zm293.48-13.83a1.5,1.5,0,0,1-1.5-1.5v-12a1.5,1.5,0,0,1,3,0v12A1.5,1.5,0,0,1,384.54,524.26ZM91.06,514.09a1.5,1.5,0,0,1-1.5-1.5v-12a1.5,1.5,0,0,1,3,0v12A1.5,1.5,0,0,1,91.06,514.09Zm293.48-13.83a1.5,1.5,0,0,1-1.5-1.5v-12a1.5,1.5,0,0,1,3,0v12A1.5,1.5,0,0,1,384.54,500.26ZM91.06,490.09a1.5,1.5,0,0,1-1.5-1.5v-12a1.5,1.5,0,0,1,3,0v12A1.5,1.5,0,0,1,91.06,490.09Zm293.48-13.83a1.5,1.5,0,0,1-1.5-1.5v-12a1.5,1.5,0,0,1,3,0v12A1.5,1.5,0,0,1,384.54,476.26ZM91.06,466.09a1.5,1.5,0,0,1-1.5-1.5v-12a1.5,1.5,0,0,1,3,0v12A1.5,1.5,0,0,1,91.06,466.09Zm293.48-13.83a1.5,1.5,0,0,1-1.5-1.5v-12a1.5,1.5,0,0,1,3,0v12A1.5,1.5,0,0,1,384.54,452.26ZM91.06,442.09a1.5,1.5,0,0,1-1.5-1.5v-12a1.5,1.5,0,0,1,3,0v12A1.5,1.5,0,0,1,91.06,442.09Zm293.48-13.83a1.5,1.5,0,0,1-1.5-1.5v-12a1.5,1.5,0,0,1,3,0v12A1.5,1.5,0,0,1,384.54,428.26ZM91.06,418.09a1.5,1.5,0,0,1-1.5-1.5v-12a1.5,1.5,0,0,1,3,0v12A1.5,1.5,0,0,1,91.06,418.09Zm293.48-13.83a1.5,1.5,0,0,1-1.5-1.5v-12a1.5,1.5,0,0,1,3,0v12A1.5,1.5,0,0,1,384.54,404.26ZM91.06,394.09a1.5,1.5,0,0,1-1.5-1.5v-12a1.5,1.5,0,0,1,3,0v12A1.5,1.5,0,0,1,91.06,394.09Zm293.48-13.83a1.5,1.5,0,0,1-1.5-1.5v-12a1.5,1.5,0,0,1,3,0v12A1.5,1.5,0,0,1,384.54,380.26ZM91.06,370.09a1.5,1.5,0,0,1-1.5-1.5v-12a1.5,1.5,0,0,1,3,0v12A1.5,1.5,0,0,1,91.06,370.09Zm293.48-13.83a1.5,1.5,0,0,1-1.5-1.5v-12a1.5,1.5,0,0,1,3,0v12A1.5,1.5,0,0,1,384.54,356.26ZM91.06,346.09a1.5,1.5,0,0,1-1.5-1.5v-12a1.5,1.5,0,0,1,3,0v12A1.5,1.5,0,0,1,91.06,346.09Zm293.48-13.83a1.5,1.5,0,0,1-1.5-1.5v-12a1.5,1.5,0,0,1,3,0v12A1.5,1.5,0,0,1,384.54,332.26ZM91.06,322.09a1.5,1.5,0,0,1-1.5-1.5v-12a1.5,1.5,0,0,1,3,0v12A1.5,1.5,0,0,1,91.06,322.09Zm293.48-13.83a1.5,1.5,0,0,1-1.5-1.5v-12a1.5,1.5,0,0,1,3,0v12A1.5,1.5,0,0,1,384.54,308.26ZM91.06,298.09a1.5,1.5,0,0,1-1.5-1.5v-12a1.5,1.5,0,0,1,3,0v12A1.5,1.5,0,0,1,91.06,298.09Zm293.48-13.83a1.5,1.5,0,0,1-1.5-1.5v-12a1.5,1.5,0,0,1,3,0v12A1.5,1.5,0,0,1,384.54,284.26ZM91.06,274.09a1.5,1.5,0,0,1-1.5-1.5v-12a1.5,1.5,0,0,1,3,0v12A1.5,1.5,0,0,1,91.06,274.09Zm293.48-13.83a1.5,1.5,0,0,1-1.5-1.5v-12a1.5,1.5,0,1,1,3,0v12A1.5,1.5,0,0,1,384.54,260.26ZM91.06,250.09a1.5,1.5,0,0,1-1.5-1.5V238.41a1.5,1.5,0,0,1,1.5-1.5h1.82a1.5,1.5,0,0,1,0,3h-.32v8.68A1.5,1.5,0,0,1,91.06,250.09Zm289.82-10.18h-12a1.5,1.5,0,0,1,0-3h12a1.5,1.5,0,0,1,0,3Zm-24,0h-12a1.5,1.5,0,0,1,0-3h12a1.5,1.5,0,0,1,0,3Zm-24,0h-12a1.5,1.5,0,0,1,0-3h12a1.5,1.5,0,0,1,0,3Zm-24,0h-12a1.5,1.5,0,0,1,0-3h12a1.5,1.5,0,0,1,0,3Zm-24,0h-12a1.5,1.5,0,0,1,0-3h12a1.5,1.5,0,0,1,0,3Zm-24,0h-12a1.5,1.5,0,0,1,0-3h12a1.5,1.5,0,0,1,0,3Zm-24,0h-12a1.5,1.5,0,0,1,0-3h12a1.5,1.5,0,0,1,0,3Zm-24,0h-12a1.5,1.5,0,0,1,0-3h12a1.5,1.5,0,0,1,0,3Zm-24,0h-12a1.5,1.5,0,0,1,0-3h12a1.5,1.5,0,0,1,0,3Zm-24,0h-12a1.5,1.5,0,0,1,0-3h12a1.5,1.5,0,0,1,0,3Zm-24,0h-12a1.5,1.5,0,0,1,0-3h12a1.5,1.5,0,0,1,0,3Zm-24,0h-12a1.5,1.5,0,1,1,0-3h12a1.5,1.5,0,0,1,0,3Z"/><rect class="cls-2" x="403.51" y="238.41" width="293.47" height="122.34"/><path class="cls-3" d="M697,362.25H685a1.5,1.5,0,0,1,0-3h12a1.5,1.5,0,0,1,0,3Zm-24,0H661a1.5,1.5,0,0,1,0-3h12a1.5,1.5,0,0,1,0,3Zm-24,0H637a1.5,1.5,0,0,1,0-3h12a1.5,1.5,0,0,1,0,3Zm-24,0H613a1.5,1.5,0,0,1,0-3h12a1.5,1.5,0,0,1,0,3Zm-24,0H589a1.5,1.5,0,0,1,0-3h12a1.5,1.5,0,0,1,0,3Zm-24,0H565a1.5,1.5,0,0,1,0-3h12a1.5,1.5,0,0,1,0,3Zm-24,0H541a1.5,1.5,0,0,1,0-3h12a1.5,1.5,0,0,1,0,3Zm-24,0H517a1.5,1.5,0,0,1,0-3h12a1.5,1.5,0,0,1,0,3Zm-24,0H493a1.5,1.5,0,0,1,0-3h12a1.5,1.5,0,0,1,0,3Zm-24,0H469a1.5,1.5,0,0,1,0-3h12a1.5,1.5,0,0,1,0,3Zm-24,0H445a1.5,1.5,0,0,1,0-3h12a1.5,1.5,0,0,1,0,3Zm-24,0H421a1.5,1.5,0,0,1,0-3h12a1.5,1.5,0,0,1,0,3Zm-24,0h-5.47a1.5,1.5,0,0,1-1.5-1.5v-6.52a1.5,1.5,0,0,1,3,0v5h4a1.5,1.5,0,0,1,0,3Zm288-3.62a1.5,1.5,0,0,1-1.5-1.5v-12a1.5,1.5,0,0,1,3,0v12A1.5,1.5,0,0,1,697,358.63Zm-293.47-14.9a1.5,1.5,0,0,1-1.5-1.5v-12a1.5,1.5,0,0,1,3,0v12A1.5,1.5,0,0,1,403.51,343.73ZM697,334.63a1.5,1.5,0,0,1-1.5-1.5v-12a1.5,1.5,0,0,1,3,0v12A1.5,1.5,0,0,1,697,334.63Zm-293.47-14.9a1.5,1.5,0,0,1-1.5-1.5v-12a1.5,1.5,0,0,1,3,0v12A1.5,1.5,0,0,1,403.51,319.73ZM697,310.63a1.5,1.5,0,0,1-1.5-1.5v-12a1.5,1.5,0,0,1,3,0v12A1.5,1.5,0,0,1,697,310.63Zm-293.47-14.9a1.5,1.5,0,0,1-1.5-1.5v-12a1.5,1.5,0,0,1,3,0v12A1.5,1.5,0,0,1,403.51,295.73ZM697,286.63a1.5,1.5,0,0,1-1.5-1.5v-12a1.5,1.5,0,0,1,3,0v12A1.5,1.5,0,0,1,697,286.63Zm-293.47-14.9a1.5,1.5,0,0,1-1.5-1.5v-12a1.5,1.5,0,0,1,3,0v12A1.5,1.5,0,0,1,403.51,271.73ZM697,262.63a1.5,1.5,0,0,1-1.5-1.5v-12a1.5,1.5,0,0,1,3,0v12A1.5,1.5,0,0,1,697,262.63Zm-293.47-14.9a1.5,1.5,0,0,1-1.5-1.5v-7.82a1.5,1.5,0,0,1,1.5-1.5h4.19a1.5,1.5,0,0,1,0,3H405v6.32A1.5,1.5,0,0,1,403.51,247.73Zm292.19-7.82h-12a1.5,1.5,0,0,1,0-3h12a1.5,1.5,0,0,1,0,3Zm-24,0h-12a1.5,1.5,0,0,1,0-3h12a1.5,1.5,0,0,1,0,3Zm-24,0h-12a1.5,1.5,0,0,1,0-3h12a1.5,1.5,0,0,1,0,3Zm-24,0h-12a1.5,1.5,0,0,1,0-3h12a1.5,1.5,0,0,1,0,3Zm-24,0h-12a1.5,1.5,0,0,1,0-3h12a1.5,1.5,0,0,1,0,3Zm-24,0h-12a1.5,1.5,0,0,1,0-3h12a1.5,1.5,0,0,1,0,3Zm-24,0h-12a1.5,1.5,0,0,1,0-3h12a1.5,1.5,0,0,1,0,3Zm-24,0h-12a1.5,1.5,0,0,1,0-3h12a1.5,1.5,0,0,1,0,3Zm-24,0h-12a1.5,1.5,0,0,1,0-3h12a1.5,1.5,0,0,1,0,3Zm-24,0h-12a1.5,1.5,0,0,1,0-3h12a1.5,1.5,0,0,1,0,3Zm-24,0h-12a1.5,1.5,0,0,1,0-3h12a1.5,1.5,0,0,1,0,3Zm-24,0h-12a1.5,1.5,0,0,1,0-3h12a1.5,1.5,0,0,1,0,3Z"/><rect class="cls-2" x="403.51" y="383.83" width="293.47" height="219.29"/><path class="cls-3" d="M697,604.62H685a1.5,1.5,0,0,1,0-3h12a1.5,1.5,0,0,1,0,3Zm-24,0H661a1.5,1.5,0,0,1,0-3h12a1.5,1.5,0,0,1,0,3Zm-24,0H637a1.5,1.5,0,0,1,0-3h12a1.5,1.5,0,0,1,0,3Zm-24,0H613a1.5,1.5,0,0,1,0-3h12a1.5,1.5,0,0,1,0,3Zm-24,0H589a1.5,1.5,0,0,1,0-3h12a1.5,1.5,0,0,1,0,3Zm-24,0H565a1.5,1.5,0,0,1,0-3h12a1.5,1.5,0,0,1,0,3Zm-24,0H541a1.5,1.5,0,0,1,0-3h12a1.5,1.5,0,0,1,0,3Zm-24,0H517a1.5,1.5,0,0,1,0-3h12a1.5,1.5,0,0,1,0,3Zm-24,0H493a1.5,1.5,0,1,1,0-3h12a1.5,1.5,0,0,1,0,3Zm-24,0H469a1.5,1.5,0,1,1,0-3h12a1.5,1.5,0,0,1,0,3Zm-24,0H445a1.5,1.5,0,1,1,0-3h12a1.5,1.5,0,0,1,0,3Zm-24,0H421a1.5,1.5,0,1,1,0-3h12a1.5,1.5,0,0,1,0,3Zm-24,0h-5.47a1.5,1.5,0,0,1-1.5-1.5v-6.53a1.5,1.5,0,0,1,3,0v5h4a1.5,1.5,0,0,1,0,3Zm288-5.52a1.5,1.5,0,0,1-1.5-1.5v-12a1.5,1.5,0,1,1,3,0v12A1.5,1.5,0,0,1,697,599.1Zm-293.47-13a1.5,1.5,0,0,1-1.5-1.5v-12a1.5,1.5,0,0,1,3,0v12A1.5,1.5,0,0,1,403.51,586.09ZM697,575.1a1.5,1.5,0,0,1-1.5-1.5v-12a1.5,1.5,0,1,1,3,0v12A1.5,1.5,0,0,1,697,575.1Zm-293.47-13a1.5,1.5,0,0,1-1.5-1.5v-12a1.5,1.5,0,0,1,3,0v12A1.5,1.5,0,0,1,403.51,562.09ZM697,551.1a1.5,1.5,0,0,1-1.5-1.5v-12a1.5,1.5,0,1,1,3,0v12A1.5,1.5,0,0,1,697,551.1Zm-293.47-13a1.5,1.5,0,0,1-1.5-1.5v-12a1.5,1.5,0,0,1,3,0v12A1.5,1.5,0,0,1,403.51,538.09ZM697,527.1a1.5,1.5,0,0,1-1.5-1.5v-12a1.5,1.5,0,1,1,3,0v12A1.5,1.5,0,0,1,697,527.1Zm-293.47-13a1.5,1.5,0,0,1-1.5-1.5v-12a1.5,1.5,0,1,1,3,0v12A1.5,1.5,0,0,1,403.51,514.09ZM697,503.1a1.5,1.5,0,0,1-1.5-1.5v-12a1.5,1.5,0,1,1,3,0v12A1.5,1.5,0,0,1,697,503.1Zm-293.47-13a1.5,1.5,0,0,1-1.5-1.5v-12a1.5,1.5,0,1,1,3,0v12A1.5,1.5,0,0,1,403.51,490.09ZM697,479.1a1.5,1.5,0,0,1-1.5-1.5v-12a1.5,1.5,0,1,1,3,0v12A1.5,1.5,0,0,1,697,479.1Zm-293.47-13a1.5,1.5,0,0,1-1.5-1.5v-12a1.5,1.5,0,1,1,3,0v12A1.5,1.5,0,0,1,403.51,466.09ZM697,455.1a1.5,1.5,0,0,1-1.5-1.5v-12a1.5,1.5,0,1,1,3,0v12A1.5,1.5,0,0,1,697,455.1Zm-293.47-13a1.5,1.5,0,0,1-1.5-1.5v-12a1.5,1.5,0,1,1,3,0v12A1.5,1.5,0,0,1,403.51,442.09ZM697,431.1a1.5,1.5,0,0,1-1.5-1.5v-12a1.5,1.5,0,1,1,3,0v12A1.5,1.5,0,0,1,697,431.1Zm-293.47-13a1.5,1.5,0,0,1-1.5-1.5v-12a1.5,1.5,0,1,1,3,0v12A1.5,1.5,0,0,1,403.51,418.09ZM697,407.1a1.5,1.5,0,0,1-1.5-1.5v-12a1.5,1.5,0,1,1,3,0v12A1.5,1.5,0,0,1,697,407.1Zm-293.47-13a1.5,1.5,0,0,1-1.5-1.5v-8.76a1.5,1.5,0,0,1,1.5-1.5h3.24a1.5,1.5,0,0,1,0,3H405v7.26A1.5,1.5,0,0,1,403.51,394.09Zm291.24-8.76h-12a1.5,1.5,0,0,1,0-3h12a1.5,1.5,0,0,1,0,3Zm-24,0h-12a1.5,1.5,0,0,1,0-3h12a1.5,1.5,0,0,1,0,3Zm-24,0h-12a1.5,1.5,0,0,1,0-3h12a1.5,1.5,0,0,1,0,3Zm-24,0h-12a1.5,1.5,0,0,1,0-3h12a1.5,1.5,0,0,1,0,3Zm-24,0h-12a1.5,1.5,0,0,1,0-3h12a1.5,1.5,0,0,1,0,3Zm-24,0h-12a1.5,1.5,0,0,1,0-3h12a1.5,1.5,0,0,1,0,3Zm-24,0h-12a1.5,1.5,0,0,1,0-3h12a1.5,1.5,0,0,1,0,3Zm-24,0h-12a1.5,1.5,0,0,1,0-3h12a1.5,1.5,0,0,1,0,3Zm-24,0h-12a1.5,1.5,0,0,1,0-3h12a1.5,1.5,0,0,1,0,3Zm-24,0h-12a1.5,1.5,0,0,1,0-3h12a1.5,1.5,0,0,1,0,3Zm-24,0h-12a1.5,1.5,0,0,1,0-3h12a1.5,1.5,0,0,1,0,3Zm-24,0h-12a1.5,1.5,0,0,1,0-3h12a1.5,1.5,0,0,1,0,3Z"/><rect class="cls-3" x="95.54" y="743.15" width="344" height="25" rx="6.5"/><path d="M433,769.65H102a8,8,0,0,1-8-8v-12a8,8,0,0,1,8-8H433a8,8,0,0,1,8,8v12A8,8,0,0,1,433,769.65Zm-331-25a5,5,0,0,0-5,5v12a5,5,0,0,0,5,5H433a5,5,0,0,0,5-5v-12a5,5,0,0,0-5-5Z"/><rect class="cls-3" x="117.54" y="704.15" width="363" height="39" rx="11.5"/><path d="M469,744.65H129a13,13,0,0,1-13-13v-16a13,13,0,0,1,13-13H469a13,13,0,0,1,13,13v16A13,13,0,0,1,469,744.65Zm-340-39a10,10,0,0,0-10,10v16a10,10,0,0,0,10,10H469a10,10,0,0,0,10-10v-16a10,10,0,0,0-10-10Z"/><rect class="cls-3" x="81.54" y="666.15" width="383" height="37" rx="9"/><path d="M455.54,704.65h-365A10.51,10.51,0,0,1,80,694.15v-19a10.51,10.51,0,0,1,10.5-10.5h365a10.51,10.51,0,0,1,10.5,10.5v19A10.51,10.51,0,0,1,455.54,704.65Zm-365-37a7.5,7.5,0,0,0-7.5,7.5v19a7.51,7.51,0,0,0,7.5,7.5h365a7.52,7.52,0,0,0,7.5-7.5v-19a7.51,7.51,0,0,0-7.5-7.5Z"/><path class="cls-1" d="M153.52,615.15c-5.47-3.48,9.9-22.27,3.52-50-3.36-14.61-9.21-16.34-9.69-29.93-.67-19.32,10.55-33.56,12.19-35.57,8.2-10.1,12-6.84,25.5-18.5,7.33-6.31,24-20.69,26.48-41,1.23-10.19-2.52-11.59,0-20,4.6-15.35,21.32-29,31-25,6.44,2.63,9.33,12.89,9,21-.72,17.68-18.3,20.68-22,39-3.49,17.31,10.69,22.25,7,37-5,20-32.56,17.09-42,40-6.24,15.15,3.92,21-1,41C186.81,600.4,159.65,619.05,153.52,615.15Z"/><path class="cls-2" d="M228,419.33a138.68,138.68,0,0,1-3.19,24.83,107.7,107.7,0,0,1-8.27,23.66,96.52,96.52,0,0,1-14,20.87,110,110,0,0,1-8.85,9c-3.1,2.82-6.35,5.47-9.6,8.08s-6.51,5.2-9.53,8a34.34,34.34,0,0,0-7.57,9.43,22.44,22.44,0,0,0-2,5.61,25.33,25.33,0,0,0-.45,6,36.42,36.42,0,0,0,2.63,11.79c1.45,3.85,3.2,7.66,4.53,11.71a37,37,0,0,1,2.1,12.7,22,22,0,0,1-.24,3.25c-.07.54-.1,1.08-.2,1.62l-.34,1.58a34.17,34.17,0,0,1-1.86,6.21,43.71,43.71,0,0,1-6.52,11.12,1.5,1.5,0,0,1-2.34-1.87v0a41,41,0,0,0,6.22-10.3,32,32,0,0,0,1.79-5.73l.34-1.47c.09-.49.13-1,.2-1.48a19.86,19.86,0,0,0,.25-3A34.44,34.44,0,0,0,169.31,559c-1.22-3.89-2.91-7.7-4.35-11.67a38.82,38.82,0,0,1-2.62-12.54,28.13,28.13,0,0,1,.57-6.47,24.57,24.57,0,0,1,2.25-6.12,36.35,36.35,0,0,1,8.11-9.88c3.14-2.84,6.46-5.38,9.73-8s6.53-5.15,9.63-7.9a108.46,108.46,0,0,0,8.83-8.72,95.29,95.29,0,0,0,14-20.42A106.28,106.28,0,0,0,224,444a139.37,139.37,0,0,0,3.49-24.67.25.25,0,0,1,.26-.24A.26.26,0,0,1,228,419.33Z"/><path class="cls-3" d="M170.52,295.15c8.71-1.74,20.3,22.17,27,36,11.8,24.33,20,41.18,16,60-5.59,26.52-28.34,24-38,52-10.31,30,13.36,39.5,3,73-7.23,23.39-24.5,37.26-18,55,2.42,6.6,5.95,7.76,7,15,2.36,16.15-11.55,35.2-21,34-3.46-.44-5.61-3.52-14-20-10.18-20-15.27-30-16-33-6.82-27.88,21.29-38.73,22-71,.68-30.69-24.45-33.64-24-63s25.49-32.08,41-76C167.81,322.37,161.74,296.9,170.52,295.15Z"/><path class="cls-2" d="M166.61,388.83A105.33,105.33,0,0,0,152.33,413a79.08,79.08,0,0,0-6.17,27.19c0,1.17-.13,2.33-.12,3.5l.13,3.49c0,.58,0,1.17.08,1.75l.2,1.73c.15,1.15.25,2.31.44,3.46a85.59,85.59,0,0,0,3.56,13.51c1.54,4.41,3.35,8.76,4.89,13.24a62.78,62.78,0,0,1,3.37,13.86,33,33,0,0,1,.26,3.58l.08,1.8c0,.6,0,1.19-.06,1.79l-.18,3.59-.53,3.55a56,56,0,0,1-4,13.75,82,82,0,0,1-7,12.47A136.81,136.81,0,0,0,140,547.09c-4.36,8.1-5.19,17.62-3.41,26.6s6.13,17.37,11.68,24.73a1.5,1.5,0,1,1-2.39,1.8h0c-5.67-7.68-10.17-16.47-11.93-26a51.16,51.16,0,0,1-.8-7.2c-.1-1.2,0-2.41,0-3.62l.05-1.82.24-1.81A39,39,0,0,1,137.85,546a134.28,134.28,0,0,1,7.63-12,79.52,79.52,0,0,0,6.89-12.07,53.67,53.67,0,0,0,4-13.24l.54-3.42.22-3.45c0-.58.1-1.16.07-1.73l-.06-1.73a30.57,30.57,0,0,0-.21-3.45c-.89-9.25-4.86-17.88-7.89-26.82a87.44,87.44,0,0,1-3.48-13.78c-.18-1.17-.26-2.36-.4-3.54L145,449c-.05-.59,0-1.18-.07-1.78l-.09-3.55c0-1.19.11-2.37.16-3.56a80.15,80.15,0,0,1,6.54-27.48,105.85,105.85,0,0,1,14.64-24.15.3.3,0,0,1,.47.37Z"/><path class="cls-4" d="M149.52,666.15h0a30,30,0,0,1-30-30v-30h60v30A30,30,0,0,1,149.52,666.15Z"/><rect class="cls-4" x="187.64" y="47.87" width="394.47" height="171.5" rx="14.7"/><path d="M567.41,220.87H202.34a16.22,16.22,0,0,1-16.2-16.2V62.57a16.22,16.22,0,0,1,16.2-16.2H567.41a16.22,16.22,0,0,1,16.2,16.2v142.1A16.22,16.22,0,0,1,567.41,220.87ZM202.34,49.37a13.21,13.21,0,0,0-13.2,13.2v142.1a13.21,13.21,0,0,0,13.2,13.2H567.41a13.21,13.21,0,0,0,13.2-13.2V62.57a13.21,13.21,0,0,0-13.2-13.2Z"/><path class="cls-2" d="M570.43,73.5H199.33a1.5,1.5,0,0,1,0-3h371.1a1.5,1.5,0,0,1,0,3Z"/><path class="cls-2" d="M213.84,59.18a3.77,3.77,0,1,1-3.77-3.77A3.77,3.77,0,0,1,213.84,59.18Z"/><path class="cls-2" d="M228.92,59.18a3.77,3.77,0,1,1-3.77-3.77A3.77,3.77,0,0,1,228.92,59.18Z"/><circle class="cls-2" cx="240.22" cy="59.18" r="3.77"/><path class="cls-2" d="M570.62,60.68H549.38a1.5,1.5,0,0,1,0-3h21.24a1.5,1.5,0,0,1,0,3Z"/><path class="cls-2" d="M539.83,60.68h-245a1.5,1.5,0,0,1,0-3h245a1.5,1.5,0,0,1,0,3Z"/><path class="cls-2" d="M271.76,60.68H253a1.5,1.5,0,1,1,0-3h18.72a1.5,1.5,0,0,1,0,3Z"/><rect class="cls-2" x="209.89" y="94.37" width="96.64" height="96.64"/><rect class="cls-1" x="324.3" y="94.37" width="21.1" height="21.1"/><rect class="cls-2" x="359.84" y="94.37" width="201.05" height="21.1"/><rect class="cls-1" x="324.3" y="132.14" width="21.1" height="21.1"/><rect class="cls-2" x="359.84" y="132.14" width="201.05" height="21.1"/><rect class="cls-1" x="324.3" y="169.9" width="21.1" height="21.1"/><rect class="cls-2" x="359.84" y="169.9" width="201.05" height="21.1"/><path class="cls-4" d="M718.94,249.22c31.51,8.86,72.07,43,72.07,104.86,0,44.59-65.67,82.35-65.67,82.35l-10.83-26.58S750.7,383,749,351.75c-1.39-25.1-41.85-32.89-41.85-32.89Z"/><rect class="cls-4" x="682.99" y="731.24" width="22.65" height="26.59"/><rect class="cls-4" x="619.97" y="729.27" width="22.65" height="26.59" transform="translate(-153.71 164.89) rotate(-13.28)"/><path d="M724.35,401.36s6.77,53.47,1.58,74.23S708.6,688.2,708.6,740.1H678.07L664.28,494.91l-42.59,89a38,38,0,0,0-2.25,22.9L644.59,740.1l-28.56,2-47.74-146.4a42.61,42.61,0,0,1-.46-22.3L606.55,418.5Z"/><path class="cls-2" d="M665.76,491a1.5,1.5,0,0,1-1.17-2.44l15.76-19.69a1.5,1.5,0,1,1,2.34,1.87l-15.76,19.7A1.48,1.48,0,0,1,665.76,491Z"/><path class="cls-2" d="M707.12,751.92H680.53L676.59,772a6.15,6.15,0,0,0,5.78,7.5h22.91a6.15,6.15,0,0,0,5.78-7.5Z"/><path d="M705.28,781H682.37a7.25,7.25,0,0,1-5.61-2.69,7.91,7.91,0,0,1-1.64-6.6l3.94-20.07a1.51,1.51,0,0,1,1.47-1.21h26.59a1.5,1.5,0,0,1,1.47,1.21l3.94,20.07a7.91,7.91,0,0,1-1.64,6.6A7.25,7.25,0,0,1,705.28,781Zm-23.51-27.57-3.71,18.86a5,5,0,0,0,1,4.11,4.23,4.23,0,0,0,3.3,1.6h22.91a4.23,4.23,0,0,0,3.3-1.6,5,5,0,0,0,1-4.11l-3.7-18.86Z"/><path class="cls-2" d="M679.55,773.09h0Z"/><path d="M707.12,774.59H679.55a1.5,1.5,0,0,1,0-3h27.57a1.5,1.5,0,0,1,0,3Z"/><path class="cls-2" d="M646.07,746l7.28,24.16c1.26,4.21-1.3,8.65-5.06,8.78l-50,1.7c-3.09.1-4.33-4.7-1.72-6.66,8.14-6.12,19-14.61,22-18.64,6.89-9.34,13.78-1.17,13.78-1.17S637.2,746,646.07,746Z"/><path d="M598.17,782.15A4.48,4.48,0,0,1,594,779a5.42,5.42,0,0,1,1.69-6.16c11.74-8.82,19.42-15.33,21.64-18.33,2.42-3.28,5.15-5,8.13-5.08a10.11,10.11,0,0,1,6.64,2.52c2-2.54,6.77-7.39,14-7.39a1.49,1.49,0,0,1,1.43,1.07l7.28,24.16a9,9,0,0,1-1.21,7.78,6.78,6.78,0,0,1-5.23,2.93l-50,1.69Zm27.51-29.78h-.18c-2,.07-4,1.37-5.8,3.86-3.05,4.14-13.78,12.59-22.24,19a2.46,2.46,0,0,0-.67,2.76,1.56,1.56,0,0,0,1.43,1.2l50-1.7a3.73,3.73,0,0,0,2.89-1.68,6.06,6.06,0,0,0,.78-5.16L645,747.56c-7.21.63-11.36,7.33-11.41,7.4a1.47,1.47,0,0,1-1.16.71,1.51,1.51,0,0,1-1.27-.52S628.72,752.37,625.68,752.37Z"/><path class="cls-2" d="M603.72,773.09l45.3-2Z"/><path d="M603.72,774.59a1.5,1.5,0,0,1-.06-3l45.3-2a1.5,1.5,0,0,1,.13,3l-45.3,2Z"/><path class="cls-2" d="M672.65,235.43l24.62,16.74-67.79-3.24L649,236.42l2.63-12.12c-3.47-.51-8.24-.86-9.75-2.75-2.68-3.34-1.47-14.89-1.47-14.89l-2.94-2.31a1.28,1.28,0,0,1-.64-.78,1.23,1.23,0,0,1,.15-1c2.49-4,4.85-5.26,6-9.31s.61-3.39,4.91-12l25.78,0,.14,19.32s4-2.56,6.47.9c1.82,2.51-2.21,10.9-5.49,10.9Z"/><path d="M697.27,253.67h-.07l-67.79-3.24a1.51,1.51,0,0,1-.73-2.77l19-12.17,2.15-9.92c-3.66-.49-7.44-1-9.11-3.08-2.63-3.27-2.12-12.22-1.87-15.16l-2.2-1.73a2.74,2.74,0,0,1-.93-3.82,35.09,35.09,0,0,1,2.76-3.74,12.82,12.82,0,0,0,3-5.17c.15-.53.27-1,.37-1.38.72-2.78,1-3.54,4.64-10.89a1.51,1.51,0,0,1,1.34-.83l25.79,0h0a1.5,1.5,0,0,1,1.5,1.49l.13,17.1a5.63,5.63,0,0,1,6.19,2.25c1.45,2,.54,5.51-.8,8.14-.52,1-2.18,3.95-4.5,4.87l-1.93,21.1,23.89,16.24a1.5,1.5,0,0,1-.85,2.74Zm-63-6L692,250.42l-20.22-13.75a1.49,1.49,0,0,1-.65-1.37l2.11-23.07a1.51,1.51,0,0,1,1.49-1.37c.6,0,2-1.09,3.23-3.51s1.41-4.51,1-5c-1.57-2.16-4-.81-4.44-.52a1.51,1.51,0,0,1-2.31-1.25l-.13-17.83-23.36,0c-3.25,6.52-3.4,7.09-4,9.47-.1.41-.22.87-.37,1.42a15.66,15.66,0,0,1-3.59,6.29,32.28,32.28,0,0,0-2.4,3.21h0l2.94,2.31a1.51,1.51,0,0,1,.56,1.33c-.44,4.23-.52,11.72,1.15,13.8.92,1.15,4.69,1.65,7.18,2l1.62.23a1.49,1.49,0,0,1,1.25,1.8l-2.63,12.12a1.51,1.51,0,0,1-.66.94Z"/><path d="M676,221c-5.19,1.74-10.31-2.33-11.24-3.06-3.6-2.86-6.55-8-5.1-10.22.79-1.24,2.21-.56,4.08-2,2.75-2.18,3.53-6.91,2-8.18-1.22-1-3.12,1-5.11,0-2.43-1.16-1.19-4.89-3.07-8.17-3.07-5.37-10.23-2.13-15.73-7.84-3.59-3.73-5.15-9.94-3.1-13.45a7.15,7.15,0,0,1,2.83-2.65c8.65-4.77,10,1.76,18.38,1.83,17.34.15,25.85,3.62,29,10.81,2.13,4.87-.47,12.65-1.73,16.41a56,56,0,0,0-2,7.15c-.81,3.86-.56,4.85-1,7.15C683.87,210.36,682.15,219,676,221Z"/><path class="cls-4" d="M603.72,245.28s59.09-16.74,115.22,3.94c4.32,24.88,7.28,46.37,9.35,63.39,3.64,30,1.38,20.39,5.91,64.13,2.82,27.18,3.57,29.67,1,34.46-13,24.15-65.5,22.84-85.67,17.73-1.43-.36-7.35-1.92-17-4.37-11.09-2.8-20.2-5-26.28-6.46a25.17,25.17,0,0,1-10.84-8.86c-6.94-10.6-2.3-24.32,0-33.49,5.91-23.53-1.85-24,0-67A373,373,0,0,1,603.72,245.28Z"/><path class="cls-2" d="M472,224.68l-6.82-29.49-19-16.87s-10.82.18,6.89,18.71c0,0-8.46,16.56-3,23.13,1.59,1.92,10.7,13.76,10.7,13.76Z"/><path d="M460.77,235.42h-.17a1.5,1.5,0,0,1-1-.58c-.09-.11-9.11-11.84-10.66-13.71-5.33-6.4.45-19.85,2.34-23.82-7.87-8.37-11-14.17-9.5-17.7a4.88,4.88,0,0,1,4.38-2.78,1.47,1.47,0,0,1,1,.38l19,16.87a1.48,1.48,0,0,1,.46.78l6.82,29.49a1.51,1.51,0,0,1-.51,1.5l-11.22,9.24A1.52,1.52,0,0,1,460.77,235.42ZM445.69,179.9a1.64,1.64,0,0,0-1.17.86c-.34.85-.67,4.46,9.63,15.23a1.5,1.5,0,0,1,.25,1.72c-2.23,4.36-7.14,16.73-3.18,21.49,1.3,1.57,7.41,9.48,9.8,12.58l9.31-7.67L463.83,196Z"/><path class="cls-4" d="M454.05,232.48l20.68-13.79s21.66,48.25,55.14,53.18,49.24-27.58,92.56-30.53l1,60.07s-42.34,37.42-79.76,35.45S466.85,269.9,454.05,232.48Z"/><path class="cls-2" d="M711.8,429.12a1.5,1.5,0,0,1-.21-3c1.09-.16,26.67-4.21,23.27-28.51a1.5,1.5,0,0,1,3-.42c3.8,27.27-25.53,31.86-25.82,31.9Z"/><path class="cls-2" d="M643.37,406.15a1.52,1.52,0,0,1-1-.43c-23.43-23.1-28.27-58.07-28.46-59.54a1.5,1.5,0,1,1,3-.4c0,.36,4.91,35.44,27.59,57.8a1.5,1.5,0,0,1,0,2.12A1.48,1.48,0,0,1,643.37,406.15Z"/><path class="cls-4" d="M511.07,510h-292c-11.39,0-19.29,9.23-17.64,20.63l33.62,231.69c1.65,11.39,12.23,20.63,23.62,20.63h292c11.4,0,19.29-9.24,17.64-20.63L534.7,530.58C533,519.18,522.47,510,511.07,510Z"/><path d="M550.67,784.4h-292c-12.09,0-23.35-9.84-25.11-21.92L200,530.79a19.52,19.52,0,0,1,4.34-15.86,19.17,19.17,0,0,1,14.78-6.48h292c12.09,0,23.36,9.83,25.11,21.91l33.61,231.69a19.52,19.52,0,0,1-4.34,15.86A19.16,19.16,0,0,1,550.67,784.4ZM219.08,511.45a16.2,16.2,0,0,0-12.51,5.44,16.59,16.59,0,0,0-3.64,13.47l33.61,231.69c1.55,10.67,11.48,19.35,22.14,19.35h292A16.25,16.25,0,0,0,563.19,776a16.63,16.63,0,0,0,3.64-13.47L533.21,530.79c-1.55-10.67-11.48-19.34-22.14-19.34Z"/><path class="cls-2" d="M520.22,545.3H219.76a1.5,1.5,0,0,1,0-3H520.22a1.5,1.5,0,0,1,0,3Z"/><path class="cls-2" d="M237.52,525.81A4.47,4.47,0,0,1,233,531.1a6.31,6.31,0,0,1-6.05-5.29,4.46,4.46,0,0,1,4.52-5.29A6.34,6.34,0,0,1,237.52,525.81Z"/><path class="cls-2" d="M258.68,525.81a4.47,4.47,0,0,1-4.53,5.29,6.31,6.31,0,0,1-6.05-5.29,4.46,4.46,0,0,1,4.52-5.29A6.34,6.34,0,0,1,258.68,525.81Z"/><path class="cls-2" d="M279.83,525.81a4.46,4.46,0,0,1-4.52,5.29,6.33,6.33,0,0,1-6.06-5.29,4.48,4.48,0,0,1,4.53-5.29A6.32,6.32,0,0,1,279.83,525.81Z"/><path class="cls-2" d="M517.87,527.31h-29.8a1.5,1.5,0,1,1,0-3h29.8a1.5,1.5,0,0,1,0,3Z"/><path class="cls-2" d="M474.67,527.31H351.25a1.5,1.5,0,0,1,0-3H474.67a1.5,1.5,0,1,1,0,3Z"/><path class="cls-2" d="M318.8,527.31H292.53a1.5,1.5,0,0,1,0-3H318.8a1.5,1.5,0,0,1,0,3Z"/><path class="cls-1" d="M418,562.84H229.66a5.8,5.8,0,0,0-5.87,6.88l10.89,75.11a8.23,8.23,0,0,0,7.88,6.88H430.87a5.81,5.81,0,0,0,5.88-6.88l-10.9-75.11A8.22,8.22,0,0,0,418,562.84Z"/><path d="M430.87,653.21H242.56a9.78,9.78,0,0,1-9.36-8.16l-10.9-75.12a7.52,7.52,0,0,1,1.68-6.08,7.37,7.37,0,0,1,5.68-2.51H418a9.78,9.78,0,0,1,9.36,8.16l10.9,75.12a7.47,7.47,0,0,1-1.69,6.08A7.34,7.34,0,0,1,430.87,653.21ZM229.66,564.34a4.4,4.4,0,0,0-3.41,1.47,4.52,4.52,0,0,0-1,3.69l10.9,75.12a6.68,6.68,0,0,0,6.39,5.59H430.87a4.42,4.42,0,0,0,3.42-1.47,4.59,4.59,0,0,0,1-3.69l-10.9-75.12a6.69,6.69,0,0,0-6.39-5.59Z"/><path class="cls-1" d="M432.87,665.46H244.55a5.81,5.81,0,0,0-5.88,6.88l11.67,80.4a8.22,8.22,0,0,0,7.87,6.88H446.53a5.81,5.81,0,0,0,5.88-6.88l-11.67-80.4A8.23,8.23,0,0,0,432.87,665.46Z"/><path d="M446.53,761.12H258.21a9.79,9.79,0,0,1-9.36-8.16l-11.66-80.4a7.5,7.5,0,0,1,1.68-6.09,7.37,7.37,0,0,1,5.68-2.51H432.87a9.8,9.8,0,0,1,9.36,8.16l11.66,80.41a7.47,7.47,0,0,1-1.68,6.08A7.37,7.37,0,0,1,446.53,761.12ZM244.55,667a4.44,4.44,0,0,0-3.41,1.47,4.52,4.52,0,0,0-1,3.69l11.66,80.41a6.7,6.7,0,0,0,6.39,5.59H446.53a4.4,4.4,0,0,0,3.41-1.47,4.52,4.52,0,0,0,1-3.69l-11.66-80.4a6.7,6.7,0,0,0-6.39-5.6Z"/><path class="cls-1" d="M516.37,562.84H444.43a5.81,5.81,0,0,0-5.88,6.88l26.55,183a8.23,8.23,0,0,0,7.88,6.88h71.94a5.81,5.81,0,0,0,5.88-6.88l-26.56-183A8.22,8.22,0,0,0,516.37,562.84Z"/><path d="M544.92,761.12H473a9.78,9.78,0,0,1-9.36-8.16l-26.56-183a7.52,7.52,0,0,1,1.68-6.08,7.37,7.37,0,0,1,5.69-2.51h71.94a9.79,9.79,0,0,1,9.36,8.16l26.55,183a7.47,7.47,0,0,1-1.68,6.08A7.37,7.37,0,0,1,544.92,761.12ZM444.43,564.34a4.42,4.42,0,0,0-3.42,1.47,4.59,4.59,0,0,0-1,3.69l26.56,183a6.68,6.68,0,0,0,6.39,5.59h71.94a4.4,4.4,0,0,0,3.41-1.47,4.52,4.52,0,0,0,1-3.69l-26.55-183a6.7,6.7,0,0,0-6.39-5.59Z"/><path class="cls-2" d="M480,585.58H302.22c-8.59,0-14.54,7-13.29,15.55L314.27,775.8c1.24,8.59,9.22,15.55,17.81,15.55h177.8c8.59,0,14.55-7,13.3-15.55L497.84,601.13C496.59,592.54,488.62,585.58,480,585.58Z"/><path d="M509.88,792.85H332.08c-9.3,0-17.95-7.55-19.3-16.84L287.44,601.35a15.09,15.09,0,0,1,3.36-12.26,14.83,14.83,0,0,1,11.42-5H480c9.29,0,18,7.55,19.29,16.84l25.34,174.66a15.06,15.06,0,0,1-3.35,12.25A14.81,14.81,0,0,1,509.88,792.85ZM302.22,587.08a11.84,11.84,0,0,0-9.15,4,12.14,12.14,0,0,0-2.66,9.86l25.34,174.66c1.14,7.87,8.47,14.27,16.33,14.27h177.8a11.84,11.84,0,0,0,9.16-4A12.14,12.14,0,0,0,521.7,776L496.36,601.35c-1.15-7.87-8.47-14.27-16.33-14.27Z"/><path d="M486.92,612.6H302.73a1.5,1.5,0,0,1,0-3H486.92a1.5,1.5,0,0,1,0,3Z"/><path class="cls-3" d="M316.12,597.54a3.37,3.37,0,0,1-3.41,4,4.76,4.76,0,0,1-4.56-4,3.37,3.37,0,0,1,3.4-4A4.77,4.77,0,0,1,316.12,597.54Z"/><path class="cls-3" d="M332.07,597.54a3.37,3.37,0,0,1-3.41,4,4.77,4.77,0,0,1-4.56-4,3.37,3.37,0,0,1,3.41-4A4.77,4.77,0,0,1,332.07,597.54Z"/><path class="cls-3" d="M348,597.54a3.37,3.37,0,0,1-3.41,4,4.77,4.77,0,0,1-4.56-4,3.37,3.37,0,0,1,3.41-4A4.77,4.77,0,0,1,348,597.54Z"/><path d="M485.16,599H462.69a1.5,1.5,0,0,1,0-3h22.47a1.5,1.5,0,1,1,0,3Z"/><path d="M452.59,599H401.86a1.5,1.5,0,0,1,0-3h50.73a1.5,1.5,0,0,1,0,3Z"/><path d="M377.4,599H357.59a1.5,1.5,0,1,1,0-3H377.4a1.5,1.5,0,0,1,0,3Z"/><polygon class="cls-3" points="493.25 727.87 327.15 727.87 312.42 626.31 478.51 626.31 493.25 727.87"/><path class="cls-1" d="M431.45,746.76a8.46,8.46,0,0,0-8.37-7.25H338.62a8.47,8.47,0,1,0,0,16.93h84.46A8.46,8.46,0,0,0,431.45,746.76Z"/><path d="M603.72,67.8a1.5,1.5,0,0,1-1.5-1.5V58.59a1.5,1.5,0,0,1,3,0V66.3A1.5,1.5,0,0,1,603.72,67.8Z"/><path d="M603.72,85.78a1.5,1.5,0,0,1-1.5-1.5V76.56a1.5,1.5,0,1,1,3,0v7.72A1.5,1.5,0,0,1,603.72,85.78Z"/><path d="M598.59,72.93h-7.71a1.5,1.5,0,0,1,0-3h7.71a1.5,1.5,0,0,1,0,3Z"/><path d="M616.57,72.93h-7.72a1.5,1.5,0,0,1,0-3h7.72a1.5,1.5,0,0,1,0,3Z"/><path d="M332.29,418a1.55,1.55,0,0,1-.31,0,1.49,1.49,0,0,1-1.07-.88l-9.86-23.15a1.5,1.5,0,0,1,2.67-1.35L331,404.88c13.79-27,5.09-63.59-19.73-81.15-18.12-12.82-41.33-15.29-63.78-17.68-1.77-.19-3.54-.37-5.29-.57-25.27-2.76-50.94-7.84-67.56-26.14a57,57,0,0,1-13.43-48.78c2.76-13.65,11.06-24.62,21.65-28.63a1.5,1.5,0,1,1,1.06,2.81c-11.51,4.36-17.76,16.5-19.77,26.41a53.9,53.9,0,0,0,12.71,46.17c15.95,17.56,41,22.48,65.66,25.18l5.29.57c22.83,2.43,46.44,4.94,65.19,18.21,26.75,18.92,35.61,59,19.35,87.39a1.47,1.47,0,0,1-1.29.76h-.11l1.9,4.46,13.8-13.09a1.5,1.5,0,1,1,2.06,2.17l-15.36,14.58A1.48,1.48,0,0,1,332.29,418Z"/><path d="M503.31,588.66a1.5,1.5,0,0,1-.81-2.77,105,105,0,0,0,19.4-161.46c-7.4-7.69-16.1-14.34-24.51-20.77-8.74-6.68-17.78-13.59-25.49-21.74-13.29-14.05-22.89-35.12-17.67-53.66l-7.92,8.53a1.5,1.5,0,0,1-2.45-1.67A40.14,40.14,0,0,1,462,316.74a1.51,1.51,0,0,1,2.12,1l4.74,17.87a1.5,1.5,0,0,1-2.9.77l-4.26-16q-.74.42-1.47.87a1.41,1.41,0,0,1-.18.75c-10.35,18.83-.4,42.66,14,57.94,7.55,8,16.49,14.81,25.13,21.42s17.29,13.21,24.86,21.07a108,108,0,0,1-20,166.07A1.49,1.49,0,0,1,503.31,588.66Z"/><path d="M170.07,142.87a1.46,1.46,0,0,1-.75-.2L55.2,76.22a1.5,1.5,0,0,1,1.51-2.59l114.12,66.45a1.5,1.5,0,0,1,.54,2A1.51,1.51,0,0,1,170.07,142.87Z"/><path d="M173.08,129.84a1.51,1.51,0,0,1-1.15-.53L124.14,72.53a1.48,1.48,0,0,1,.18-2.11,1.5,1.5,0,0,1,2.11.18l47.8,56.78a1.5,1.5,0,0,1-.18,2.11A1.49,1.49,0,0,1,173.08,129.84Z"/><path d="M277.47,810.61a1.59,1.59,0,0,1-.48-.07c-74-24.56-126-81.78-126.5-82.36a1.5,1.5,0,0,1,2.23-2c.51.57,52,57.21,125.22,81.51a1.5,1.5,0,0,1-.47,2.92Z"/><path d="M230.52,806.5a1.46,1.46,0,0,1-.53-.1c-47.22-17.9-83.36-53.06-83.72-53.41a1.5,1.5,0,1,1,2.1-2.14c.36.35,36.07,35.07,82.69,52.75a1.5,1.5,0,0,1-.54,2.9Z"/><path d="M142.16,721.66a6.66,6.66,0,1,1,6.66-6.66A6.67,6.67,0,0,1,142.16,721.66Zm0-10.32a3.66,3.66,0,1,0,3.66,3.66A3.66,3.66,0,0,0,142.16,711.34Z"/><path class="cls-2" d="M736.68,133.65a1.5,1.5,0,0,1-1.38-.91C708.55,71.22,623.8,42.71,623,42.42a1.5,1.5,0,1,1,.94-2.84,260.59,260.59,0,0,1,46.68,22.14c22.91,13.73,53.21,37,67.48,69.83a1.5,1.5,0,0,1-.78,2A1.4,1.4,0,0,1,736.68,133.65Z"/><path class="cls-2" d="M757,145.19a1.5,1.5,0,0,1-1.45-1.1c-17-61.81-65.86-83.91-66.35-84.13a1.5,1.5,0,1,1,1.21-2.75c.5.22,50.69,22.91,68,86.08a1.51,1.51,0,0,1-1.05,1.85A1.41,1.41,0,0,1,757,145.19Z"/></g></g></g></svg>